<?xml version="1.0" encoding="UTF-8" standalone="no"?>
<!DOCTYPE svg PUBLIC "-//W3C//DTD SVG 1.1//EN" "http://www.w3.org/Graphics/SVG/1.1/DTD/svg11.dtd">
<svg width="100%" height="100%" viewBox="0 0 1792 1792" version="1.1" xmlns="http://www.w3.org/2000/svg" xmlns:xlink="http://www.w3.org/1999/xlink" xml:space="preserve" style="fill-rule:evenodd;clip-rule:evenodd;stroke-linecap:round;stroke-linejoin:round;stroke-miterlimit:1.5;">
    <path d="M832.876,151.027L1488.67,162.869L1488.67,1202.16L841.001,1637.74L832.876,151.027Z" style="fill:rgb(254,193,54);stroke:black;stroke-width:0.75px;"/>
    <g transform="matrix(1.1536,0,0,1.1536,-137.621,-137.621)">
        <path d="M1344,960L1344,320L896,320L896,1457C975.333,1415 1046.33,1369.33 1109,1320C1265.67,1197.33 1344,1077.33 1344,960ZM1536,192L1536,960C1536,1017.33 1524.83,1074.17 1502.5,1130.5C1480.17,1186.83 1452.5,1236.83 1419.5,1280.5C1386.5,1324.17 1347.17,1366.67 1301.5,1408C1255.83,1449.33 1213.67,1483.67 1175,1511C1136.33,1538.33 1096,1564.17 1054,1588.5C1012,1612.83 982.167,1629.33 964.5,1638C946.833,1646.67 932.667,1653.33 922,1658C914,1662 905.333,1664 896,1664C886.667,1664 878,1662 870,1658C859.333,1653.33 845.167,1646.67 827.5,1638C809.833,1629.33 780,1612.83 738,1588.5C696,1564.17 655.667,1538.33 617,1511C578.333,1483.67 536.167,1449.33 490.5,1408C444.833,1366.67 405.5,1324.17 372.5,1280.5C339.5,1236.83 311.833,1186.83 289.5,1130.5C267.167,1074.17 256,1017.33 256,960L256,192C256,174.667 262.333,159.667 275,147C287.667,134.333 302.667,128 320,128L1472,128C1489.33,128 1504.33,134.333 1517,147C1529.67,159.667 1536,174.667 1536,192Z" style="fill:rgb(51,63,76);fill-rule:nonzero;"/>
    </g>
</svg>
